# xmcd
#
# Track frame offsets: 
#        150
#        16859
#        28749
#        42871
#        56768
#        75149
#        91159
#        110356
#        128551
#        148591
#        162816
#        175513
#        192943
#        213464
#        215950
#        231819
#
# Disc length: 3370 seconds
#
# Revision: 0
# Processed by: cddbd v1.5.1PL2 Copyright (c) Steve Scherf et al.
# Submitted via: ExactAudioCopy v0.95a4
#
DISCID=cc0d2810
DTITLE=Whiskeytown - Cat's Cradle - Carrboro NC - 5-25-95
DYEAR=1995
DGENRE=Country
TTITLE0=Excuse Me While I Break My Own Heart
TTITLE1=Lucky Me
TTITLE2=Drugstore Truck Driving Man
TTITLE3=Don't Take Your Guns to Town
TTITLE4=Tennessee Square
TTITLE5=Desperate Ain't Lonely
TTITLE6=Top Dollar
TTITLE7=Midway Park
TTITLE8=Western Stars
TTITLE9=Blank Generation
TTITLE10=Way Down in the County
TTITLE11=This May Be the Last Time
TTITLE12=Faithless Street
TTITLE13=Encore Break - Interlude
TTITLE14=Drank Like a River
TTITLE15=If He Can't Have You
EXTD=
EXTT0=
EXTT1=
EXTT2=
EXTT3=
EXTT4=
EXTT5=
EXTT6=
EXTT7=
EXTT8=
EXTT9=
EXTT10=
EXTT11=
EXTT12=
EXTT13=
EXTT14=
EXTT15=
PLAYORDER=
